<svg width="32" height="32" viewBox="0 0 32 32" fill="none" xmlns="http://www.w3.org/2000/svg">
<g id="Frame 1984080349">
<rect x="0.5" y="0.5" width="31" height="31" rx="3.5" stroke="#717B8D"/>
<path id="ico_back" d="M10.9942 16.1191C10.9939 16.2703 11.0243 16.42 11.0834 16.5592C11.1425 16.6985 11.2292 16.8243 11.3382 16.9291L18.0882 23.6791C18.1963 23.7849 18.3247 23.8678 18.4656 23.9229C18.6065 23.9779 18.7571 24.004 18.9084 23.9995C19.0596 23.995 19.2084 23.9601 19.3458 23.8968C19.4832 23.8335 19.6064 23.7431 19.7081 23.631C19.8098 23.519 19.8878 23.3876 19.9375 23.2447C19.9872 23.1018 20.0076 22.9504 19.9975 22.7994C19.9873 22.6484 19.9468 22.5011 19.8783 22.3662C19.8099 22.2312 19.715 22.1115 19.5992 22.0141L13.7052 16.1201L19.6772 10.1481C19.8759 9.93482 19.9841 9.65275 19.9789 9.3613C19.9738 9.06984 19.8557 8.79177 19.6496 8.58565C19.4435 8.37953 19.1654 8.26146 18.874 8.25632C18.5825 8.25117 18.3004 8.35936 18.0872 8.55808L11.3372 15.3081C11.2282 15.4129 11.1415 15.5387 11.0824 15.6779C11.0233 15.8171 10.9929 15.9668 10.9932 16.1181L10.9942 16.1191Z" fill="#717B8D"/>
</g>
</svg>
